#!OML:ASF F:\VICON\USERDATA\INSTALL\rory3\rory3.ASF
:FULLY-SPECIFIED
:DEGREES
2413
root 1.82032 9.63859 -6.31109 -211.269 183.13 -178.983
lowerback 32.4616 0.0104898 -4.12439
upperback 12.96 -1.24987 0.456151
thorax -2.80804 -0.823355 3.30466
lowerneck -12.9288 -11.8292 -16.3836
upperneck 12.717 -14.9635 12.266
head 8.24449 -7.0074 4.82014
rclavicle -5.36719e-015 8.54774e-015
rhumerus -11.3332 17.0743 -74.0693
rradius 104.102
rwrist 39.9208
rhand -26.2165 -0.908179
rfingers 7.12502
rthumb 0.33662 -30.8877
lclavicle -5.36719e-015 8.54774e-015
lhumerus -36.1473 -18.951 86.4159
lradius 89.6026
lwrist -12.1948
lhand -40.4224 11.4196
lfingers 7.12502
lthumb -13.3749 40.9703
rfemur -93.4331 -13.5899 30.2575
rtibia 85.1332
rfoot 4.31838 -2.51483
rtoes -5.18547
lfemur -62.7065 19.9413 -20.2274
ltibia 91.3427
lfoot 2.00395 -19.4557
ltoes -7.01307
2414
root 1.83308 9.63736 -6.30639 -211.199 183.346 -179.071
lowerback 32.6139 -0.0151759 -4.09647
upperback 12.6977 -1.27667 0.613173
thorax -3.16998 -0.82742 3.48207
lowerneck -11.8891 -11.5833 -16.4963
upperneck 12.9259 -14.8067 12.3521
head 8.12634 -6.97454 4.94096
rclavicle 7.20594e-015 -3.97569e-015
rhumerus -12.5524 17.1751 -75.0239
rradius 104.657
rwrist 41.155
rhand -25.8404 -1.74155
rfingers 7.12502
rthumb 0.699871 -31.7202
lclavicle 7.20594e-015 -3.97569e-015
lhumerus -36.7727 -18.6705 86.7133
lradius 89.5696
lwrist -12.7953
lhand -40.3942 11.7432
lfingers 7.12502
lthumb -13.3478 41.2957
rfemur -92.7853 -13.6341 28.9269
rtibia 86.0548
rfoot 4.26803 -2.50552
rtoes -9.35754
lfemur -62.7889 20.0474 -20.0707
ltibia 91.4304
lfoot 1.58206 -19.5703
ltoes -7.15389
2415
root 1.84298 9.63834 -6.29794 -211.063 183.692 -179.208
lowerback 33.1892 0.0135489 -4.11902
upperback 12.1456 -1.28613 0.963128
thorax -3.55078 -0.831607 3.60234
lowerneck -11.5159 -11.3277 -16.1229
upperneck 13.4497 -14.5683 12.0087
head 8.14024 -6.88417 4.82561
rclavicle 2.16675e-014 -1.0138e-014
rhumerus -13.4993 17.466 -75.9118
rradius 105.117
rwrist 42.0775
rhand -25.6772 -2.14558
rfingers 7.12502
rthumb 0.857521 -32.1236
lclavicle 2.16675e-014 -1.0138e-014
lhumerus -37.3146 -18.536 87.1097
lradius 89.4275
lwrist -12.3503
lhand -41.1068 11.2512
lfingers 7.12502
lthumb -14.0346 40.7573
rfemur -92.1662 -13.5273 27.6695
rtibia 86.913
rfoot 4.64831 -2.33683
rtoes -9.12162
lfemur -62.9733 20.283 -19.7798
ltibia 91.5496
lfoot 2.12597 -19.2384
ltoes -4.79622
2416
root 1.85263 9.63959 -6.29163 -210.863 184.026 -179.268
lowerback 33.2366 0.0544653 -4.16457
upperback 12.0163 -1.24337 1.14909
thorax -3.70835 -0.813126 3.81051
lowerneck -11.5751 -11.1235 -15.7309
upperneck 14.2208 -14.3741 11.7456
head 8.32567 -6.78869 4.70608
rclavicle -4.91992e-015 1.64991e-014
rhumerus -14.2244 17.7065 -76.7066
rradius 105.544
rwrist 42.6973
rhand -25.6914 -2.23191
rfingers 7.12502
rthumb 0.843783 -32.21
lclavicle -4.91992e-015 1.64991e-014
lhumerus -37.5883 -18.5385 87.448
lradius 89.2535
lwrist -11.8689
lhand -41.7124 11.1041
lfingers 7.12502
lthumb -14.6181 40.5689
rfemur -91.5816 -13.3085 26.3077
rtibia 87.7243
rfoot 5.22825 -2.06369
rtoes -6.58171
lfemur -63.2996 20.5728 -19.6496
ltibia 91.7247
lfoot 2.78921 -19.0485
ltoes -3.85666
2417
root 1.86487 9.64831 -6.29328 -210.718 184.29 -179.336
lowerback 33.2382 0.0380719 -4.10345
upperback 11.9027 -1.24056 1.27238
thorax -3.83272 -0.809629 3.90861
lowerneck -11.3397 -11.0616 -15.8063
upperneck 14.859 -14.432 12.0267
head 8.53503 -6.80478 4.81484
rclavicle 3.88127e-014 -1.82882e-014
rhumerus -15.0625 17.986 -77.4698
rradius 105.985
rwrist 43.2708
rhand -25.7235 -2.48128
rfingers 7.12502
rthumb 0.812775 -32.4595
lclavicle 3.88127e-014 -1.82882e-014
lhumerus -37.9047 -18.5368 87.6793
lradius 89.1126
lwrist -11.8351
lhand -42.0815 10.9909
lfingers 7.12502
lthumb -14.9737 40.4295
rfemur -90.8214 -13.08 24.7485
rtibia 88.4767
rfoot 5.55086 -2.27533
rtoes -5.55969
lfemur -63.4079 20.7475 -19.5569
ltibia 91.699
lfoot 2.96737 -19.1928
ltoes -4.05748
2418
root 1.87782 9.65693 -6.29783 -210.608 184.488 -179.341
lowerback 33.3216 0.00531159 -4.16063
upperback 11.7361 -1.29944 1.3892
thorax -4.03567 -0.836382 4.08441
lowerneck -10.9008 -10.9498 -15.8747
upperneck 15.4235 -14.4393 12.2617
head 8.67215 -6.80908 4.92639
rclavicle -3.23025e-015 1.55052e-014
rhumerus -15.8599 18.4721 -78.2391
rradius 106.321
rwrist 43.8856
rhand -25.5494 -2.71091
rfingers 7.12502
rthumb 0.980953 -32.6884
lclavicle -3.23025e-015 1.55052e-014
lhumerus -38.3665 -18.3028 87.9813
lradius 89.1195
lwrist -11.8314
lhand -42.2799 11.0337
lfingers 7.12502
lthumb -15.1648 40.458
rfemur -90.0121 -12.8949 23.1199
rtibia 89.2127
rfoot 5.86611 -2.5871
rtoes -4.07723
lfemur -63.5635 20.9241 -19.5293
ltibia 91.8418
lfoot 3.07248 -19.1434
ltoes -4.22064
2419
root 1.88919 9.66121 -6.29584 -210.418 184.66 -179.266
lowerback 33.255 -0.0279715 -4.52784
upperback 11.5206 -1.44405 1.61553
thorax -4.21772 -0.915669 4.56799
lowerneck -10.1745 -10.6793 -16.1037
upperneck 15.8625 -14.2121 12.4213
head 8.68537 -6.73177 5.0888
rclavicle -1.48095e-014 5.96354e-015
rhumerus -16.6449 19.4482 -78.9204
rradius 106.61
rwrist 44.4989
rhand -25.057 -3.11444
rfingers 7.12502
rthumb 1.45652 -33.0892
lclavicle -1.48095e-014 5.96354e-015
lhumerus -39.0076 -17.7477 88.4059
lradius 89.163
lwrist -11.6906
lhand -42.5501 11.0523
lfingers 7.12502
lthumb -15.4251 40.4568
rfemur -89.3665 -12.6692 21.4423
rtibia 89.9857
rfoot 6.48281 -2.72312
rtoes -3.15359
lfemur -63.823 21.1033 -19.6503
ltibia 91.8496
lfoot 3.04626 -19.163
ltoes -4.44956
2420
root 1.90019 9.66873 -6.28884 -210.126 184.946 -179.317
lowerback 33.0243 -0.00139381 -4.32692
upperback 11.6225 -1.33661 1.64396
thorax -4.0389 -0.86638 4.45206
lowerneck -10.5399 -10.7985 -15.4598
upperneck 16.5857 -14.4852 12.2609
head 8.97336 -6.81587 4.87775
rclavicle -1.42131e-014 9.93923e-015
rhumerus -16.9751 19.5945 -79.6435
rradius 106.788
rwrist 45.0637
rhand -24.3399 -3.31723
rfingers 7.12502
rthumb 2.14906 -33.2862
lclavicle -1.42131e-014 9.93923e-015
lhumerus -38.6878 -18.1633 88.365
lradius 88.8239
lwrist -11.461
lhand -43.031 10.9601
lfingers 7.12502
lthumb -15.8882 40.3283
rfemur -88.8214 -12.5039 20.1006
rtibia 90.7281
rfoot 7.31171 -2.77634
rtoes -3.18783
lfemur -64.0942 21.327 -19.6101
ltibia 91.7332
lfoot 2.98397 -19.2899
ltoes -4.18021
2421
root 1.9143 9.68256 -6.2967 -209.747 185.272 -179.452
lowerback 32.8245 -0.0200316 -4.22497
upperback 11.4743 -1.31074 1.82199
thorax -4.12909 -0.851029 4.57775
lowerneck -10.3522 -10.738 -15.1511
upperneck 17.3547 -14.537 12.1079
head 9.17139 -6.83704 4.78215
rclavicle -4.37326e-015 1.98785e-014
rhumerus -17.6771 20.2874 -80.3098
rradius 107.038
rwrist 45.3672
rhand -22.8388 -3.35028
rfingers 7.12502
rthumb 3.59877 -33.2996
lclavicle -4.37326e-015 1.98785e-014
lhumerus -38.7938 -18.176 88.5621
lradius 88.455
lwrist -11.5077
lhand -43.3504 10.9576
lfingers 7.12502
lthumb -16.1957 40.301
rfemur -88.2677 -12.4874 19.0369
rtibia 91.3545
rfoot 8.18843 -2.73501
rtoes -3.49676
lfemur -64.4404 21.511 -19.5453
ltibia 91.5213
lfoot 3.15788 -19.3024
ltoes -3.96636
